<?xml version="1.0" encoding="UTF-8"?>
<!DOCTYPE svg PUBLIC "-//W3C//DTD SVG 1.1//EN" "http://www.w3.org/Graphics/SVG/1.1/DTD/svg11.dtd">
<!-- Creator: CorelDRAW X8 -->
<svg xmlns="http://www.w3.org/2000/svg" xml:space="preserve" width="5.613in" height="5.608in" version="1.1" style="shape-rendering:geometricPrecision; text-rendering:geometricPrecision; image-rendering:optimizeQuality; fill-rule:evenodd; clip-rule:evenodd"
viewBox="0 0 5613 5608"
 xmlns:xlink="http://www.w3.org/1999/xlink">
 <defs>
  <style type="text/css">
   <![CDATA[
    .fil80 {fill:none}
    .fil19 {fill:#FEFEFE;fill-rule:nonzero}
    .fil4 {fill:#FFF9F0;fill-rule:nonzero}
    .fil18 {fill:#F6946F;fill-rule:nonzero}
    .fil1 {fill:#F5EEDB;fill-rule:nonzero}
    .fil2 {fill:#F3C067;fill-rule:nonzero}
    .fil8 {fill:#9A4134;fill-rule:nonzero}
    .fil14 {fill:#903932;fill-rule:nonzero}
    .fil9 {fill:#833030;fill-rule:nonzero}
    .fil76 {fill:#832F30;fill-rule:nonzero}
    .fil32 {fill:#6A2E33;fill-rule:nonzero}
    .fil33 {fill:#6A2B2C;fill-rule:nonzero}
    .fil31 {fill:#5B282A;fill-rule:nonzero}
    .fil6 {fill:#7DCAAF;fill-rule:nonzero}
    .fil30 {fill:#3D282A;fill-rule:nonzero}
    .fil49 {fill:#696E59;fill-rule:nonzero}
    .fil10 {fill:#66C29C;fill-rule:nonzero}
    .fil3 {fill:#454750;fill-rule:nonzero}
    .fil48 {fill:#2A5688;fill-rule:nonzero}
    .fil0 {fill:#93D0EB;fill-rule:nonzero}
    .fil11 {fill:url(#id57)}
    .fil28 {fill:url(#id58)}
    .fil36 {fill:url(#id59)}
    .fil26 {fill:url(#id60)}
    .fil24 {fill:url(#id61)}
    .fil34 {fill:url(#id62)}
    .fil39 {fill:url(#id63)}
    .fil47 {fill:url(#id64)}
    .fil42 {fill:url(#id65)}
    .fil37 {fill:url(#id66)}
    .fil23 {fill:url(#id67)}
    .fil41 {fill:url(#id68)}
    .fil54 {fill:url(#id69)}
    .fil79 {fill:url(#id70)}
    .fil78 {fill:url(#id71)}
    .fil16 {fill:url(#id72)}
    .fil59 {fill:url(#id73)}
    .fil29 {fill:url(#id74)}
    .fil21 {fill:url(#id75)}
    .fil38 {fill:url(#id76)}
    .fil52 {fill:url(#id77)}
    .fil20 {fill:url(#id78)}
    .fil25 {fill:url(#id79)}
    .fil64 {fill:url(#id80)}
    .fil62 {fill:url(#id81)}
    .fil74 {fill:url(#id82)}
    .fil5 {fill:url(#id83)}
    .fil50 {fill:url(#id84)}
    .fil55 {fill:url(#id85)}
    .fil44 {fill:url(#id86)}
    .fil15 {fill:url(#id87)}
    .fil57 {fill:url(#id88)}
    .fil73 {fill:url(#id89)}
    .fil69 {fill:url(#id90)}
    .fil22 {fill:url(#id91)}
    .fil35 {fill:url(#id92)}
    .fil27 {fill:url(#id93)}
    .fil40 {fill:url(#id94)}
    .fil58 {fill:url(#id95)}
    .fil13 {fill:url(#id96)}
    .fil51 {fill:url(#id97)}
    .fil53 {fill:url(#id98)}
    .fil65 {fill:url(#id99)}
    .fil7 {fill:url(#id100)}
    .fil71 {fill:url(#id101)}
    .fil63 {fill:url(#id102)}
    .fil77 {fill:url(#id103)}
    .fil75 {fill:url(#id104)}
    .fil12 {fill:url(#id105)}
    .fil45 {fill:url(#id106)}
    .fil46 {fill:url(#id107)}
    .fil43 {fill:url(#id108)}
    .fil17 {fill:url(#id109)}
    .fil72 {fill:url(#id110)}
    .fil68 {fill:url(#id111)}
    .fil61 {fill:url(#id112)}
    .fil56 {fill:url(#id113)}
    .fil67 {fill:url(#id114)}
    .fil66 {fill:url(#id115)}
    .fil70 {fill:url(#id116)}
    .fil60 {fill:url(#id117)}
   ]]>
  </style>
   <clipPath id="id0">
    <path d="M660 831l3802 0 0 4777 -3802 0 0 -4777z"/>
   </clipPath>
     <clipPath id="id1">
      <path d="M3641 5608c-1,-31 -4,-54 -7,-62 -18,-40 -32,-25 -41,-176l169 -29 -72 267 -49 0zm184 -502l8 -82c6,-3 12,-6 17,-9l-25 91 0 0z"/>
     </clipPath>
     <clipPath id="id2">
      <path d="M660 831l3802 0 0 4777 -3802 0 0 -4777z"/>
     </clipPath>
     <clipPath id="id3" style="clip-rule:nonzero">
      <path d="M3065 1981l0 0c0,-31 0,-63 -1,-94 1,31 1,63 1,94l0 0z"/>
     </clipPath>
     <clipPath id="id4" style="clip-rule:nonzero">
      <path d="M660 831l3802 0 0 4777 -3802 0 0 -4777z"/>
     </clipPath>
     <clipPath id="id5" style="clip-rule:nonzero">
     </clipPath>
     <clipPath id="id6" style="clip-rule:nonzero">
      <path d="M660 831l3802 0 0 4777 -3802 0 0 -4777z"/>
     </clipPath>
     <clipPath id="id7" style="clip-rule:nonzero">
      <path d="M1858 5547l0 0c0,0 20,22 52,61l-49 0c-8,-6 -12,-9 -12,-9l-4 9 -5 0 18 -61z"/>
     </clipPath>
     <clipPath id="id8" style="clip-rule:nonzero">
      <path d="M660 831l3802 0 0 4777 -3802 0 0 -4777z"/>
     </clipPath>
     <clipPath id="id9" style="clip-rule:nonzero">
      <path d="M1953 5608l-43 0c-32,-39 -52,-61 -52,-61 4,-13 9,-26 12,-39 3,2 41,22 86,87l-3 13z"/>
     </clipPath>
     <clipPath id="id10" style="clip-rule:nonzero">
      <path d="M660 831l3802 0 0 4777 -3802 0 0 -4777z"/>
     </clipPath>
     <clipPath id="id11" style="clip-rule:nonzero">
     </clipPath>
     <clipPath id="id12" style="clip-rule:nonzero">
      <path d="M660 831l3802 0 0 4777 -3802 0 0 -4777z"/>
     </clipPath>
     <clipPath id="id13" style="clip-rule:nonzero">
     </clipPath>
     <clipPath id="id14" style="clip-rule:nonzero">
      <path d="M660 831l3802 0 0 4777 -3802 0 0 -4777z"/>
     </clipPath>
     <clipPath id="id15" style="clip-rule:nonzero">
      <path d="M1953 5608l3 -13c3,4 6,8 9,13l-12 0z"/>
     </clipPath>
     <clipPath id="id16" style="clip-rule:nonzero">
      <path d="M660 831l3802 0 0 4777 -3802 0 0 -4777z"/>
     </clipPath>
     <clipPath id="id17" style="clip-rule:nonzero">
      <path d="M1860 5608l-15 0 3 -9c0,0 5,3 12,9z"/>
     </clipPath>
     <clipPath id="id18" style="clip-rule:nonzero">
      <path d="M660 831l3802 0 0 4777 -3802 0 0 -4777z"/>
     </clipPath>
     <clipPath id="id19" style="clip-rule:nonzero">
     </clipPath>
     <clipPath id="id20" style="clip-rule:nonzero">
      <path d="M660 831l3802 0 0 4777 -3802 0 0 -4777z"/>
     </clipPath>
     <clipPath id="id21" style="clip-rule:nonzero">
     </clipPath>
     <clipPath id="id22" style="clip-rule:nonzero">
      <path d="M660 831l3802 0 0 4777 -3802 0 0 -4777z"/>
     </clipPath>
     <clipPath id="id23" style="clip-rule:nonzero">
     </clipPath>
     <clipPath id="id24" style="clip-rule:nonzero">
      <path d="M660 831l3802 0 0 4777 -3802 0 0 -4777z"/>
     </clipPath>
     <clipPath id="id25" style="clip-rule:nonzero">
      <path d="M2073 5599c-24,0 -42,-3 -53,-11l-9 -7c25,-33 63,-85 118,-164 1,1 2,3 3,4 10,15 35,22 71,22 121,0 368,-73 589,-147l-14 106 0 0c-125,45 -259,92 -380,128 -28,9 -55,16 -81,23 -102,28 -189,46 -244,46zm896 -269l8 -99c63,-23 119,-44 162,-60l1 93c-46,18 -104,41 -171,66zm-1098 -74c-8,-25 -15,-51 -23,-78 -54,-200 -100,-425 -121,-567l0 -1 0 0 0 0c40,-12 93,-26 159,-36 40,178 86,358 128,507 -55,56 -106,114 -144,174 1,0 1,1 1,1zm-162 -855l0 0c-8,-84 -22,-196 -32,-310 0,0 55,24 133,95 9,58 21,121 33,185 -59,9 -104,20 -134,30l0 0z"/>
     </clipPath>
     <clipPath id="id26" style="clip-rule:nonzero">
      <path d="M660 831l3802 0 0 4777 -3802 0 0 -4777z"/>
     </clipPath>
     <clipPath id="id27" style="clip-rule:nonzero">
      <path d="M1727 4611l0 0c-8,-52 -12,-92 -12,-116 0,-23 -2,-56 -6,-94 30,-10 75,-21 134,-30 13,66 28,134 43,203 -66,10 -119,24 -159,37l0 0z"/>
     </clipPath>
     <clipPath id="id28" style="clip-rule:nonzero">
      <path d="M660 831l3802 0 0 4777 -3802 0 0 -4777z"/>
     </clipPath>
     <clipPath id="id29" style="clip-rule:nonzero">
      <path d="M2011 5581l0 0 0 0c-9,-8 -18,-19 -26,-33 -38,-59 -77,-167 -114,-292 -1,0 -1,-1 -1,-1 38,-60 89,-118 144,-174 48,167 91,295 115,335 -54,80 -93,132 -118,165l0 0z"/>
     </clipPath>
     <clipPath id="id30" style="clip-rule:nonzero">
      <path d="M660 831l3802 0 0 4777 -3802 0 0 -4777z"/>
     </clipPath>
     <clipPath id="id31" style="clip-rule:nonzero">
      <path d="M2247 5279c-11,0 -20,0 -27,-2l0 0 0 0c37,-57 69,-107 98,-150 6,3 13,6 20,9 38,16 89,22 148,22 34,0 70,-2 109,-6 1,0 3,0 4,0 65,0 140,-11 214,-26l-5 39c-222,57 -467,114 -561,114zm-147 -279c-35,-126 -70,-283 -102,-439 5,-1 11,-1 16,-1 40,157 83,292 139,393 -17,16 -35,31 -53,47zm-141 -640c-1,-4 -1,-7 -2,-10 3,3 5,6 8,10 -3,0 -4,0 -6,0l0 0z"/>
     </clipPath>
     <clipPath id="id32" style="clip-rule:nonzero">
      <path d="M660 831l3802 0 0 4777 -3802 0 0 -4777z"/>
     </clipPath>
     <clipPath id="id33" style="clip-rule:nonzero">
      <path d="M2486 5158c-59,0 -110,-7 -148,-22 -7,-3 -14,-6 -20,-10 18,-27 34,-52 49,-75 40,44 84,74 140,90 25,7 55,11 88,11 -39,4 -75,6 -109,6zm-333 -205c-56,-101 -99,-236 -139,-393 16,-1 32,-2 49,-3 8,0 16,0 23,0 70,128 121,236 169,324 -30,17 -63,39 -98,69 -1,1 -2,2 -4,3l0 0z"/>
     </clipPath>
     <clipPath id="id34" style="clip-rule:nonzero">
      <path d="M660 831l3802 0 0 4777 -3802 0 0 -4777z"/>
     </clipPath>
     <clipPath id="id35" style="clip-rule:nonzero">
      <path d="M1998 4561c-14,-68 -27,-136 -39,-201 2,0 4,0 5,0 2,1 3,3 4,5 15,68 30,133 46,195 -6,0 -11,0 -16,1l0 0z"/>
     </clipPath>
     <clipPath id="id36" style="clip-rule:nonzero">
      <path d="M660 831l3802 0 0 4777 -3802 0 0 -4777z"/>
     </clipPath>
     <clipPath id="id37" style="clip-rule:nonzero">
      <path d="M2014 4560c-15,-62 -31,-127 -46,-195 34,46 69,101 103,163 5,10 10,19 15,29 -7,0 -15,0 -23,0 -17,1 -33,2 -49,3l0 0z"/>
     </clipPath>
     <clipPath id="id38" style="clip-rule:nonzero">
      <path d="M660 831l3802 0 0 4777 -3802 0 0 -4777z"/>
     </clipPath>
     <clipPath id="id39" style="clip-rule:nonzero">
      <path d="M2220 5277c-33,-9 -76,-120 -120,-277 18,-16 36,-31 53,-47 45,80 98,140 165,174 -29,43 -61,93 -98,150l0 0 0 0z"/>
     </clipPath>
     <clipPath id="id40" style="clip-rule:nonzero">
      <path d="M660 831l3802 0 0 4777 -3802 0 0 -4777z"/>
     </clipPath>
     <clipPath id="id41" style="clip-rule:nonzero">
      <path d="M2318 5127c-67,-34 -120,-94 -165,-174 2,-1 3,-2 4,-3 35,-30 68,-52 98,-69 38,70 73,126 112,170 -15,23 -31,48 -49,76l0 0z"/>
     </clipPath>
     <clipPath id="id42" style="clip-rule:nonzero">
      <path d="M660 831l3802 0 0 4777 -3802 0 0 -4777z"/>
     </clipPath>
     <clipPath id="id43" style="clip-rule:nonzero">
      <path d="M2986 5118l2 -36c79,-23 137,-43 150,-47l0 41c-41,11 -94,26 -152,42l0 0z"/>
     </clipPath>
     <clipPath id="id44" style="clip-rule:nonzero">
      <path d="M660 831l3802 0 0 4777 -3802 0 0 -4777z"/>
     </clipPath>
     <clipPath id="id45" style="clip-rule:nonzero">
      <path d="M2778 5402l14 -106c65,-22 128,-45 185,-65l-8 99 0 0c-24,9 -49,19 -75,29 -11,4 -23,9 -35,13 -4,2 -8,3 -13,5 -22,8 -45,16 -68,25zm30 -237l5 -39c62,-13 123,-29 175,-44l-2 36c-55,15 -115,31 -178,47l0 0z"/>
     </clipPath>
     <clipPath id="id46" style="clip-rule:nonzero">
      <path d="M660 831l3802 0 0 4777 -3802 0 0 -4777z"/>
     </clipPath>
     <clipPath id="id47" style="clip-rule:nonzero">
      <path d="M2203 5443c-36,0 -61,-7 -71,-21 -1,-2 -2,-4 -3,-6 26,-39 57,-85 91,-139l0 0c7,2 16,3 27,3 94,0 339,-58 561,-115l-16 131c-221,74 -467,147 -589,147zm-189 -362c-42,-149 -88,-329 -128,-507 34,-6 71,-10 112,-13 32,157 67,313 102,439 -29,27 -58,53 -86,81zm-171 -710c-12,-64 -24,-127 -33,-185 43,39 94,92 147,164 1,3 1,6 2,10 -43,2 -82,6 -116,11l0 0z"/>
     </clipPath>
     <clipPath id="id48" style="clip-rule:nonzero">
      <path d="M660 831l3802 0 0 4777 -3802 0 0 -4777z"/>
     </clipPath>
     <clipPath id="id49" style="clip-rule:nonzero">
      <path d="M1886 4574c-15,-69 -30,-137 -43,-203 34,-5 73,-9 116,-11 12,65 25,133 39,201 -41,3 -78,7 -112,13l0 0z"/>
     </clipPath>
     <clipPath id="id50" style="clip-rule:nonzero">
      <path d="M660 831l3802 0 0 4777 -3802 0 0 -4777z"/>
     </clipPath>
     <clipPath id="id51" style="clip-rule:nonzero">
      <path d="M2129 5416c-24,-40 -67,-168 -115,-335 28,-27 57,-55 86,-81 44,157 87,268 120,277 -34,54 -65,100 -91,139l0 0z"/>
     </clipPath>
     <clipPath id="id52" style="clip-rule:nonzero">
      <path d="M660 831l3802 0 0 4777 -3802 0 0 -4777z"/>
     </clipPath>
     <clipPath id="id53" style="clip-rule:nonzero">
      <path d="M2977 5231l9 -113c58,-16 111,-31 152,-42l1 95c-43,16 -99,37 -162,60l0 0z"/>
     </clipPath>
     <clipPath id="id54" style="clip-rule:nonzero">
      <path d="M660 831l3802 0 0 4777 -3802 0 0 -4777z"/>
     </clipPath>
     <clipPath id="id55" style="clip-rule:nonzero">
      <path d="M2792 5296l16 -131c63,-16 123,-32 178,-47l-9 113c-57,20 -120,43 -185,65l0 0z"/>
     </clipPath>
     <clipPath id="id56" style="clip-rule:nonzero">
      <path d="M660 831l3802 0 0 4777 -3802 0 0 -4777z"/>
     </clipPath>
  <linearGradient id="id57" gradientUnits="userSpaceOnUse" x1="3322.1" y1="4529.46" x2="3322.1" y2="3313.68">
   <stop offset="0" style="stop-opacity:1; stop-color:#ED3237"/>
   <stop offset="1" style="stop-opacity:1; stop-color:#C73538"/>
  </linearGradient>
  <linearGradient id="id58" gradientUnits="userSpaceOnUse" x1="2448.61" y1="6258.52" x2="2448.61" y2="6258.52">
   <stop offset="0" style="stop-opacity:1; stop-color:#ED3237"/>
   <stop offset="1" style="stop-opacity:1; stop-color:#7E2E30"/>
  </linearGradient>
  <linearGradient id="id59" gradientUnits="userSpaceOnUse" x1="1858.1" y1="5547.48" x2="1858.1" y2="5547.48">
   <stop offset="0" style="stop-opacity:1; stop-color:#B93437"/>
   <stop offset="1" style="stop-opacity:1; stop-color:#812E2F"/>
  </linearGradient>
  <linearGradient id="id60" gradientUnits="userSpaceOnUse" xlink:href="#id58" x1="1907.08" y1="5380.04" x2="1907.08" y2="5379.93">
  </linearGradient>
  <linearGradient id="id61" gradientUnits="userSpaceOnUse" xlink:href="#id58" x1="2457.78" y1="4850.83" x2="2457.78" y2="4850.83">
  </linearGradient>
  <linearGradient id="id62" gradientUnits="userSpaceOnUse" x1="2919.24" y1="3538.34" x2="2919.24" y2="3208.57">
   <stop offset="0" style="stop-opacity:1; stop-color:#F05B3B"/>
   <stop offset="1" style="stop-opacity:1; stop-color:#C73538"/>
  </linearGradient>
  <linearGradient id="id63" gradientUnits="userSpaceOnUse" xlink:href="#id59" x1="2010.66" y1="5581.27" x2="2010.66" y2="5581.26">
  </linearGradient>
  <linearGradient id="id64" gradientUnits="userSpaceOnUse" x1="2754.38" y1="4649.68" x2="3953.44" y2="4649.68">
   <stop offset="0" style="stop-opacity:1; stop-color:#785A90"/>
   <stop offset="1" style="stop-opacity:1; stop-color:#422842"/>
  </linearGradient>
  <linearGradient id="id65" gradientUnits="userSpaceOnUse" xlink:href="#id59" x1="2210.69" y1="6115.22" x2="2210.69" y2="6051.02">
  </linearGradient>
  <linearGradient id="id66" gradientUnits="userSpaceOnUse" xlink:href="#id59" x1="1862.76" y1="5558.19" x2="1862.76" y2="5450.26">
  </linearGradient>
  <linearGradient id="id67" gradientUnits="userSpaceOnUse" xlink:href="#id58" x1="2534.38" y1="4691.7" x2="2534.38" y2="4546.63">
  </linearGradient>
  <linearGradient id="id68" gradientUnits="userSpaceOnUse" xlink:href="#id59" x1="2418.14" y1="6105.26" x2="2418.14" y2="4794.59">
  </linearGradient>
  <linearGradient id="id69" gradientUnits="userSpaceOnUse" xlink:href="#id62" x1="2256.16" y1="3813.93" x2="2256.16" y2="3208.66">
  </linearGradient>
  <linearGradient id="id70" gradientUnits="userSpaceOnUse" x1="2081.6" y1="4774.03" x2="2081.6" y2="3421.82">
   <stop offset="0" style="stop-opacity:1; stop-color:#5C322B"/>
   <stop offset="1" style="stop-opacity:1; stop-color:#50282A"/>
  </linearGradient>
  <linearGradient id="id71" gradientUnits="userSpaceOnUse" x1="2081.6" y1="4774.03" x2="2081.6" y2="3421.82">
   <stop offset="0" style="stop-opacity:1; stop-color:#783E2F"/>
   <stop offset="1" style="stop-opacity:1; stop-color:#622C2C"/>
  </linearGradient>
  <linearGradient id="id72" gradientUnits="userSpaceOnUse" x1="2617.5" y1="3204.63" x2="2379.63" y2="1435.02">
   <stop offset="0" style="stop-opacity:1; stop-color:#BD673A"/>
   <stop offset="1" style="stop-opacity:1; stop-color:#A84836"/>
  </linearGradient>
  <linearGradient id="id73" gradientUnits="userSpaceOnUse" x1="1306.72" y1="5362.31" x2="2193.33" y2="5362.31">
   <stop offset="0" style="stop-opacity:1; stop-color:#6F2C2C"/>
   <stop offset="1" style="stop-opacity:1; stop-color:#672A2C"/>
  </linearGradient>
  <linearGradient id="id74" gradientUnits="userSpaceOnUse" xlink:href="#id58" x1="2448.83" y1="6365.83" x2="2448.83" y2="6257.88">
  </linearGradient>
  <linearGradient id="id75" gradientUnits="userSpaceOnUse" xlink:href="#id58" x1="2493.84" y1="4177.28" x2="2493.84" y2="4046.99">
  </linearGradient>
  <linearGradient id="id76" gradientUnits="userSpaceOnUse" xlink:href="#id59" x1="1908.06" y1="5653.36" x2="1908.06" y2="5064.47">
  </linearGradient>
  <linearGradient id="id77" gradientUnits="userSpaceOnUse" xlink:href="#id57" x1="2453.5" y1="5599.3" x2="2453.5" y2="3336.37">
  </linearGradient>
  <linearGradient id="id78" gradientUnits="userSpaceOnUse" xlink:href="#id58" x1="2405.19" y1="4018.55" x2="2405.19" y2="3526.53">
  </linearGradient>
  <linearGradient id="id79" gradientUnits="userSpaceOnUse" xlink:href="#id58" x1="2388.04" y1="4935.61" x2="2388.04" y2="4591.82">
  </linearGradient>
  <linearGradient id="id80" gradientUnits="userSpaceOnUse" x1="2454.38" y1="5599.32" x2="2454.38" y2="3336.28">
   <stop offset="0" style="stop-opacity:1; stop-color:#B93437"/>
   <stop offset="1" style="stop-opacity:1; stop-color:#A63335"/>
  </linearGradient>
  <linearGradient id="id81" gradientUnits="userSpaceOnUse" x1="2100.74" y1="7000.99" x2="2100.74" y2="3508.6">
   <stop offset="0" style="stop-opacity:1; stop-color:#923132"/>
   <stop offset="1" style="stop-opacity:1; stop-color:#832F30"/>
  </linearGradient>
  <linearGradient id="id82" gradientUnits="userSpaceOnUse" x1="2100.74" y1="7000.96" x2="2100.74" y2="3508.62">
   <stop offset="0" style="stop-opacity:1; stop-color:#9E3234"/>
   <stop offset="1" style="stop-opacity:1; stop-color:#812E2F"/>
  </linearGradient>
  <linearGradient id="id83" gradientUnits="userSpaceOnUse" xlink:href="#id70" x1="1306.7" y1="5151.24" x2="2193.33" y2="5151.24">
  </linearGradient>
  <linearGradient id="id84" gradientUnits="userSpaceOnUse" xlink:href="#id59" x1="2100.74" y1="7000.98" x2="2100.74" y2="3508.62">
  </linearGradient>
  <linearGradient id="id85" gradientUnits="userSpaceOnUse" xlink:href="#id80" x1="2454.26" y1="5599.29" x2="2454.26" y2="3336.38">
  </linearGradient>
  <linearGradient id="id86" gradientUnits="userSpaceOnUse" xlink:href="#id82" x1="2100.75" y1="7000.96" x2="2100.75" y2="3508.63">
  </linearGradient>
  <linearGradient id="id87" gradientUnits="userSpaceOnUse" x1="-8111.01" y1="5131.93" x2="5272.04" y2="5131.93">
   <stop offset="0" style="stop-opacity:1; stop-color:#935449"/>
   <stop offset="1" style="stop-opacity:1; stop-color:#C16F61"/>
  </linearGradient>
  <linearGradient id="id88" gradientUnits="userSpaceOnUse" xlink:href="#id80" x1="2454.33" y1="5599.04" x2="2454.33" y2="3336.59">
  </linearGradient>
  <linearGradient id="id89" gradientUnits="userSpaceOnUse" xlink:href="#id59" x1="2100.74" y1="7000.96" x2="2100.74" y2="3508.62">
  </linearGradient>
  <linearGradient id="id90" gradientUnits="userSpaceOnUse" x1="2454.37" y1="5599.3" x2="2454.37" y2="3336.37">
   <stop offset="0" style="stop-opacity:1; stop-color:#923132"/>
   <stop offset="1" style="stop-opacity:1; stop-color:#8C3031"/>
  </linearGradient>
  <linearGradient id="id91" gradientUnits="userSpaceOnUse" xlink:href="#id58" x1="2422.32" y1="4530.39" x2="2422.32" y2="4207.42">
  </linearGradient>
  <linearGradient id="id92" gradientUnits="userSpaceOnUse" xlink:href="#id73" x1="1306.67" y1="5362.31" x2="2193.35" y2="5362.31">
  </linearGradient>
  <linearGradient id="id93" gradientUnits="userSpaceOnUse" xlink:href="#id58" x1="2155.3" y1="6405.62" x2="2155.3" y2="5984.15">
  </linearGradient>
  <linearGradient id="id94" gradientUnits="userSpaceOnUse" xlink:href="#id59" x1="2116.32" y1="5948.3" x2="2116.32" y2="5097.63">
  </linearGradient>
  <linearGradient id="id95" gradientUnits="userSpaceOnUse" x1="2454.37" y1="5599.32" x2="2454.37" y2="3336.36">
   <stop offset="0" style="stop-opacity:1; stop-color:#9E3234"/>
   <stop offset="1" style="stop-opacity:1; stop-color:#963133"/>
  </linearGradient>
  <linearGradient id="id96" gradientUnits="userSpaceOnUse" xlink:href="#id72" x1="2625.04" y1="3204.63" x2="2388.71" y2="1435.02">
  </linearGradient>
  <linearGradient id="id97" gradientUnits="userSpaceOnUse" x1="2897.06" y1="4833.5" x2="3946.15" y2="4833.5">
   <stop offset="0" style="stop-opacity:1; stop-color:#DF8943"/>
   <stop offset="1" style="stop-opacity:1; stop-color:#BA5038"/>
  </linearGradient>
  <linearGradient id="id98" gradientUnits="userSpaceOnUse" xlink:href="#id80" x1="2454.37" y1="5599.3" x2="2454.37" y2="3336.37">
  </linearGradient>
  <linearGradient id="id99" gradientUnits="userSpaceOnUse" xlink:href="#id95" x1="2454.38" y1="5599.3" x2="2454.38" y2="3336.37">
  </linearGradient>
  <linearGradient id="id100" gradientUnits="userSpaceOnUse" x1="2572.98" y1="3401.79" x2="2572.98" y2="3212.17">
   <stop offset="0" style="stop-opacity:1; stop-color:#57282C"/>
   <stop offset="1" style="stop-opacity:1; stop-color:#A93336"/>
  </linearGradient>
  <linearGradient id="id101" gradientUnits="userSpaceOnUse" xlink:href="#id59" x1="2100.75" y1="7000.94" x2="2100.75" y2="3508.63">
  </linearGradient>
  <linearGradient id="id102" gradientUnits="userSpaceOnUse" xlink:href="#id95" x1="2454.37" y1="5599.3" x2="2454.37" y2="3336.38">
  </linearGradient>
  <linearGradient id="id103" gradientUnits="userSpaceOnUse" x1="2407.8" y1="5599.3" x2="2407.8" y2="4091.24">
   <stop offset="0" style="stop-opacity:1; stop-color:#832F30"/>
   <stop offset="1" style="stop-opacity:1; stop-color:#CD3539"/>
  </linearGradient>
  <linearGradient id="id104" gradientUnits="userSpaceOnUse" xlink:href="#id81" x1="2100.74" y1="7000.96" x2="2100.74" y2="3508.64">
  </linearGradient>
  <linearGradient id="id105" gradientUnits="userSpaceOnUse" xlink:href="#id97" x1="2585.45" y1="3204.63" x2="2330.4" y2="1435.02">
  </linearGradient>
  <linearGradient id="id106" gradientUnits="userSpaceOnUse" xlink:href="#id82" x1="2100.74" y1="7000.96" x2="2100.74" y2="3508.63">
  </linearGradient>
  <linearGradient id="id107" gradientUnits="userSpaceOnUse" xlink:href="#id64" x1="2847.44" y1="4658.48" x2="3953.46" y2="4658.48">
  </linearGradient>
  <linearGradient id="id108" gradientUnits="userSpaceOnUse" xlink:href="#id59" x1="2369.9" y1="6425.1" x2="2369.9" y2="5911.43">
  </linearGradient>
  <linearGradient id="id109" gradientUnits="userSpaceOnUse" x1="2579.66" y1="3204.61" x2="2321.61" y2="1435.03">
   <stop offset="0" style="stop-opacity:1; stop-color:#AA5437"/>
   <stop offset="1" style="stop-opacity:1; stop-color:#A04435"/>
  </linearGradient>
  <linearGradient id="id110" gradientUnits="userSpaceOnUse" xlink:href="#id59" x1="2100.72" y1="7000.96" x2="2100.72" y2="3508.62">
  </linearGradient>
  <linearGradient id="id111" gradientUnits="userSpaceOnUse" xlink:href="#id95" x1="2438.83" y1="5599.32" x2="2438.83" y2="3336.37">
  </linearGradient>
  <linearGradient id="id112" gradientUnits="userSpaceOnUse" xlink:href="#id82" x1="2100.74" y1="7000.94" x2="2100.74" y2="3508.64">
  </linearGradient>
  <linearGradient id="id113" gradientUnits="userSpaceOnUse" xlink:href="#id95" x1="2454.38" y1="5599.29" x2="2454.38" y2="3336.38">
  </linearGradient>
  <linearGradient id="id114" gradientUnits="userSpaceOnUse" xlink:href="#id95" x1="2454.38" y1="5599.3" x2="2454.38" y2="3336.37">
  </linearGradient>
  <linearGradient id="id115" gradientUnits="userSpaceOnUse" xlink:href="#id80" x1="2454.38" y1="5599.3" x2="2454.38" y2="3336.37">
  </linearGradient>
  <linearGradient id="id116" gradientUnits="userSpaceOnUse" xlink:href="#id90" x1="2454.37" y1="5599.29" x2="2454.37" y2="3336.39">
  </linearGradient>
  <linearGradient id="id117" gradientUnits="userSpaceOnUse" xlink:href="#id59" x1="2100.8" y1="7001.83" x2="2100.8" y2="3507.63">
  </linearGradient>
 </defs>
 <g id="Layer_x0020_1">
  <metadata id="CorelCorpID_0Corel-Layer"/>
  <path class="fil0" d="M2611 5142c-113,0 -201,-21 -255,-69 -88,-79 -100,-199 -84,-325l-807 -385c-46,2 -91,4 -135,4 -946,0 -1519,-664 -965,-1249 278,-293 1176,-885 602,-948 -945,-103 -1556,-560 -87,-1413 0,0 1225,-757 2093,-757 185,0 353,34 490,117 717,433 -306,1541 13,1541 30,0 70,-9 125,-29 164,-61 337,-90 505,-90 516,0 984,273 1014,725 54,802 -1338,1414 -1143,1414 5,0 12,0 20,-1 97,-12 187,-18 269,-18 458,0 670,184 366,538 -391,455 -1482,945 -2021,945z"/>
  <path class="fil1" d="M4585 2365c0,94 -76,170 -170,170 -94,0 -170,-76 -170,-170 0,-94 76,-170 170,-170 94,0 170,76 170,170z"/>
  <path class="fil1" d="M4156 2514c0,82 -67,149 -149,149 -82,0 -148,-67 -148,-149 0,-81 66,-148 148,-148 82,0 149,67 149,148z"/>
  <path class="fil1" d="M5613 853c0,-196 -159,-355 -355,-355 -5,0 -10,0 -15,0 10,-29 15,-59 15,-91 0,-163 -132,-294 -294,-294 -81,0 -154,32 -207,85 -12,-77 -78,-136 -158,-136 -75,0 -137,51 -155,120 -54,-72 -140,-120 -237,-120 -127,0 -236,81 -277,194 -33,-10 -68,-16 -104,-16 -196,0 -355,159 -355,355 0,65 18,126 48,179 -77,11 -136,78 -136,158 0,64 37,119 91,145 -57,63 -91,147 -91,238 0,196 159,355 355,355 12,0 24,0 37,-2 -3,16 -5,33 -5,50 0,162 132,294 294,294 85,0 161,-36 214,-93 0,3 0,6 0,9 0,89 72,161 160,161 89,0 161,-72 161,-161 0,-2 0,-4 -1,-6l2 0c5,84 74,150 160,150 88,0 160,-71 160,-160 0,-25 -6,-48 -16,-69 50,37 111,60 178,60 163,0 294,-132 294,-294 0,-54 -14,-104 -40,-148 4,1 8,1 11,1 89,0 161,-72 161,-161 0,-58 -32,-109 -78,-137 109,-61 183,-177 183,-311z"/>
  <path class="fil2" d="M4493 1502l-112 -993c0,0 -383,58 -354,405 31,366 273,210 296,608l170 -20z"/>
  <path class="fil2" d="M4493 1502l-112 -993c0,0 358,-68 436,316 73,360 -219,266 -153,658l-171 19z"/>
  <polygon class="fil3" points="4319,1483 4657,1431 4688,1705 4349,1744 "/>
  <polygon class="fil3" points="4415,1674 4607,1645 4623,1782 4429,1804 "/>
  <path class="fil4" d="M4471 1012l-3 0c-2,3 0,19 6,35 4,-10 5,-21 3,-29 -1,-5 -3,-6 -6,-6zm-75 10c-5,5 -3,18 1,28 2,3 3,6 5,9 0,-2 0,-4 0,-7 0,-15 -4,-26 -6,-30zm-29 453l-51 -456 23 -4c9,42 28,90 41,94 1,1 2,1 4,-1 5,-4 9,-10 12,-18 -8,-9 -15,-19 -20,-31 -12,-27 -7,-50 11,-59 8,-4 19,-3 28,9 10,16 13,46 7,74 8,5 15,7 21,5 7,-3 13,-8 18,-15 -12,-22 -19,-50 -15,-67 3,-10 10,-16 20,-17 17,-2 30,7 34,24 4,17 -1,40 -12,60l1 1c5,6 9,8 10,7 16,-9 23,-56 23,-86l23 -2 52 458 -23 3 -43 -378c-5,11 -11,20 -20,25 -6,3 -18,7 -31,-4 -2,-1 -4,-3 -5,-5 -7,8 -15,14 -24,18 -12,4 -25,2 -36,-5 -4,8 -9,15 -16,21 -8,6 -17,8 -26,5 -9,-3 -17,-11 -24,-22l41 363 -23 3z"/>
  <path class="fil1" d="M4417 558c0,0 241,53 310,233 68,179 19,285 30,272 11,-14 62,-76 18,-248 -44,-172 -195,-319 -358,-257z"/>
  <polygon class="fil4" points="4323,1515 4322,1503 4660,1460 4661,1471 "/>
  <polygon class="fil4" points="4330,1575 4329,1563 4667,1525 4669,1536 "/>
  <polygon class="fil4" points="4339,1648 4336,1636 4672,1572 4674,1584 "/>
  <polygon class="fil4" points="4342,1681 4340,1669 4679,1631 4681,1643 "/>
  <path class="fil0" d="M4362 431c-12,0 -22,-9 -23,-21l-9 -85c-2,-12 7,-24 20,-25 13,-2 24,8 26,20l9 85c2,13 -8,24 -20,26l-3 0z"/>
  <path class="fil0" d="M4572 438c-1,0 -3,-1 -5,-1 -13,-3 -20,-16 -17,-28l21 -83c3,-12 16,-20 28,-17 13,3 20,16 17,28l-21 83c-3,11 -12,18 -23,18z"/>
  <path class="fil0" d="M4747 519c-4,0 -8,-1 -12,-3 -11,-7 -14,-21 -8,-32l46 -73c6,-11 21,-14 32,-7 10,6 14,21 7,32l-45 72c-5,7 -12,11 -20,11z"/>
  <path class="fil0" d="M4868 641c-9,0 -17,-5 -21,-13 -6,-11 -1,-25 10,-31l76 -40c11,-6 25,-1 31,10 6,12 2,26 -10,31l-76 40c-3,2 -7,3 -10,3z"/>
  <path class="fil0" d="M4920 773c-11,0 -20,-8 -23,-19 -2,-12 6,-24 18,-27l84 -18c13,-2 25,6 27,18 3,13 -5,25 -17,28l-84 17c-2,1 -3,1 -5,1z"/>
  <path class="fil0" d="M5010 1125c-3,0 -6,-1 -10,-2l-77 -37c-11,-6 -16,-20 -11,-31 6,-12 20,-17 31,-11l77 37c12,5 17,19 11,31 -4,8 -12,13 -21,13z"/>
  <path class="fil0" d="M4918 1291c-5,0 -10,-2 -15,-5l-67 -54c-10,-8 -11,-22 -3,-32 8,-10 22,-12 32,-4l67 53c10,8 12,23 4,33 -5,6 -11,9 -18,9z"/>
  <path class="fil0" d="M5037 941l-3 0 -85 -10c-12,-1 -21,-13 -20,-26 2,-12 13,-21 26,-20l85 10c12,2 22,13 20,26 -1,12 -11,20 -23,20z"/>
  <path class="fil0" d="M4190 481c-9,0 -17,-5 -21,-13l-39 -76c-6,-11 -1,-25 10,-31 12,-6 25,-1 31,10l39 76c6,11 2,25 -10,31 -3,2 -7,3 -10,3z"/>
  <path class="fil0" d="M4037 599c-6,0 -12,-2 -16,-7l-60 -61c-9,-9 -9,-23 0,-32 9,-9 24,-9 33,0l60 61c9,9 9,23 0,32 -5,5 -11,7 -17,7z"/>
  <path class="fil0" d="M3947 744c-2,0 -4,0 -6,0l-83 -22c-12,-3 -20,-16 -16,-28 3,-13 16,-20 28,-17l83 22c12,3 20,16 16,28 -2,10 -12,17 -22,17z"/>
  <path class="fil0" d="M3840 886c-13,0 -23,-10 -23,-22 -1,-13 10,-24 22,-24l86 -1 0 0c13,0 23,10 23,22 1,13 -10,24 -22,24l-86 1 0 0z"/>
  <path class="fil0" d="M3915 1248c-6,0 -13,-3 -18,-9 -8,-10 -6,-24 4,-32l67 -53c10,-8 25,-7 33,3 8,10 6,25 -4,33l-67 53c-4,3 -10,5 -15,5z"/>
  <path class="fil0" d="M4043 1389c-6,0 -11,-1 -15,-5 -10,-8 -12,-22 -4,-32l54 -67c8,-10 22,-12 32,-4 10,8 12,23 4,33l-53 67c-5,5 -12,8 -18,8z"/>
  <path class="fil0" d="M3849 1075c-10,0 -19,-6 -22,-15 -4,-12 2,-26 14,-30l80 -29c12,-4 26,2 30,14 4,13 -2,26 -14,30l-81 29c-2,1 -5,1 -7,1z"/>
  <path class="fil1" d="M1857 904c-21,-21 -28,-53 -18,-81l20 -59c5,-16 19,-58 56,-99 38,-45 110,-99 234,-105 105,-5 128,-87 132,-106 1,-6 2,-9 5,-18 23,-65 4,-139 -49,-184 -105,-89 -250,-38 -287,78 -9,27 -32,47 -61,52 -73,11 -120,-55 -100,-113 63,-181 262,-277 443,-215 179,63 275,257 216,437 -17,83 -96,231 -291,240 -113,5 -132,77 -132,77 -1,4 -1,7 -3,10l-19 57c-20,57 -96,80 -146,29z"/>
  <path class="fil1" d="M1948 1071c-17,49 -71,75 -120,58 -50,-17 -76,-71 -59,-120 18,-49 71,-75 121,-58 49,17 75,71 58,120z"/>
  <path class="fil1" d="M1145 1287c-39,7 -79,-9 -103,-41l-49 -67c-15,-18 -51,-65 -70,-136 -20,-77 -26,-198 60,-339 74,-121 0,-208 -17,-226 -7,-6 -10,-10 -17,-19 -55,-75 -152,-110 -242,-85 -176,49 -230,249 -129,378 24,30 29,71 12,106 -42,90 -150,92 -200,26 -154,-206 -111,-499 95,-653 204,-152 492,-112 647,88 80,82 184,282 48,505 -79,128 -14,203 -14,204 3,3 6,7 9,10l48 65c49,66 17,167 -78,184z"/>
  <path class="fil1" d="M1400 1312c42,56 30,135 -26,177 -56,42 -135,30 -177,-26 -42,-56 -30,-135 26,-177 56,-42 135,-30 177,26z"/>
  <path class="fil1" d="M3644 2469c0,57 -47,104 -104,104 -58,0 -104,-47 -104,-104 0,-57 46,-104 104,-104 57,0 104,47 104,104z"/>
  <g>
  </g>
  <g style="clip-path:url(#id0)">
   <g>
    <g id="_1402633723360">
    </g>
    <g style="clip-path:url(#id1)">
     <image x="3559" y="4984" width="322" height="766" xlink:href="kid_Images\kid_ImgID1.png"/>
    </g>
    <g style="clip-path:url(#id2)">
     <path class="fil5" d="M1487 5228l0 -1c170,-292 222,-826 222,-826 4,38 6,70 6,94 0,24 4,64 12,116l0 0c21,142 67,367 122,567 7,26 14,53 22,78 13,47 25,88 36,124 0,0 0,0 0,0l-49 167c-31,98 -44,336 -81,264l-290 -583zm222 -827l0 0zm198 979l0 0zm-49 167l0 0z"/>
     <path class="fil6" d="M3728 6260c0,0 -209,181 -589,183l0 0c-54,0 -111,-4 -171,-11 -266,-35 -439,-54 -542,-70 -87,-13 -123,-24 -120,-41 5,-38 -14,-188 42,-361 4,-12 8,-26 12,-44 56,-245 135,-1044 119,-1387 -8,-150 -56,-368 -111,-574 -78,-296 -170,-566 -170,-566l58 -28 50 -25c0,0 15,5 42,11l1 0c57,13 163,30 274,16 43,-5 79,-14 110,-24 86,-27 125,-63 125,-63 0,0 53,-14 91,0 3,2 8,5 15,9 69,45 298,250 426,555 103,246 192,1322 201,1503 10,180 24,161 43,203 18,43 7,499 32,515 24,16 57,51 62,106 4,55 0,93 0,93z"/>
     <path class="fil7" d="M2569 3209c-90,0 -279,-4 -313,27 -34,32 38,150 38,150l185 16 396 -97c0,0 -107,-96 -306,-96z"/>
     <path class="fil8" d="M2896 3272c0,0 -39,109 -251,147 -212,39 -413,-51 -413,-51 0,0 78,-29 127,-61 20,-13 35,-27 38,-40 11,-45 -1,-175 -1,-175l259 58c0,0 -2,28 8,59 4,12 10,25 20,36 44,55 213,27 213,27z"/>
     <path class="fil9" d="M2663 3209c0,0 -28,64 -125,91 -98,26 -179,7 -179,7 20,-13 35,-27 38,-40 11,-45 -1,-175 -1,-175l259 58c0,0 -2,28 8,59z"/>
     <path class="fil10" d="M3322 6259c0,0 -67,105 -243,91 -176,-14 -271,-77 -366,-56 -95,21 235,93 331,121 81,23 93,27 95,28 -54,0 -111,-4 -171,-11 -266,-35 -439,-54 -542,-70l-69 -339 3 -107c56,-245 135,-1044 119,-1387 -8,-150 -56,-368 -111,-574l-112 -594 -9 -47 102 33c57,13 163,30 274,16 43,-5 79,-14 110,-24 86,-27 125,-63 125,-63 0,0 53,-14 91,0 3,2 8,5 15,9l247 329 101 266c0,0 -442,144 -585,289 -143,145 154,1179 178,1233 25,53 640,-23 640,-23l48 363c0,0 -268,-52 -507,0 -239,52 -485,165 -517,292 -32,126 142,120 395,209 252,89 358,16 358,16z"/>
     <path class="fil11" d="M3054 3314c0,0 240,30 349,115 109,85 140,371 173,628 27,215 63,472 63,472l-381 -929 -252 -251 48 -35z"/>
     <path class="fil12" d="M2691 3184c-11,0 -23,0 -34,-1 -10,-1 -20,-2 -30,-3l-2 0 -2 0 -7 -1c-15,-1 -30,-3 -46,-6 -5,-1 -10,-2 -15,-3l-3 0 -1 0c-1,0 -1,0 -1,0 -76,-15 -262,-181 -317,-279 -40,-71 -63,-293 58,-315 119,-21 223,-98 230,-103 7,-5 -53,-231 -159,-263 -17,-5 -33,-7 -49,-7 -27,0 -51,7 -71,14 -20,6 -35,13 -46,13 -9,0 -14,-5 -15,-20 -4,-56 226,-273 480,-273 2,0 4,0 6,0 152,3 265,53 331,93 -9,23 -20,50 -52,90 -48,59 -92,208 -58,273 27,50 150,56 205,56 16,0 26,-1 26,-1 23,108 48,216 54,288 1,17 -2,37 -9,58 -47,138 -255,347 -390,381 -24,6 -52,9 -83,9zm-34 -1l0 0zm462 -735l0 -1 -1 -2 0 -1 0 -1 -1 -2 0 -1 0 0 0 -1 0 -1 -1 -2 0 0 0 -1 0 -1 -1 -2 0 0 0 -1 0 -1 0 -1 0 -1 -1 -1 0 -1 0 -1 0 0 -1 -2 0 -1 0 -1 0 0 0 -2 -1 -1 0 -1 0 0 0 -1 -1 -2 0 -1 0 0 0 -1 0 -2 -1 -1 0 0 0 -1 0 -2 -1 -1 0 0 0 -1 0 -1 0 -2 0 0 -1 -1 0 -1 0 -2 0 0 -1 -2 0 -1 0 0 -1 -3 0 -1 0 0 0 -2 -1 -2 0 0 -1 -4 0 0 0 -1 0 -2 0 -1 0 0 -1 -1 0 -1 0 -3 -1 -1 0 -1 0 0 0 -2 -1 -1 0 -1 0 0 0 -2 0 2 0 0 0 1 1 1 0 2 0 0 0 1 1 1 0 3 0 1 1 1 0 0 0 1 0 2 0 1 0 0 1 4 0 0 1 2 0 2 0 0 0 1 1 3 0 0 0 1 1 2 0 0 0 2 0 1 1 1 0 0 0 2 0 1 0 1 0 0 1 1 0 2 0 1 0 0 1 1 0 2 0 1 0 0 0 1 1 2 0 1 0 0 0 1 1 1 0 2 0 0 0 1 0 1 1 2 0 0 0 1 0 1 1 1 0 1 0 1 0 1 0 1 0 0 1 2 0 1 0 1 0 0 1 2 0 1 0 1 0 0 0 1 1 2 0 1 0 1 1 2 0 1zm-18 -83l-3 -12 0 -1 0 -2c-3,-14 -6,-29 -9,-43l0 -1c-4,-18 -7,-36 -10,-53l0 -1 0 -2 -1 -2 0 0 0 -2 0 -1 0 -1 -1 -2 0 0 0 -2 0 -2 -1 -3 0 0 0 -2 0 -1 0 -1 -1 -2 0 0 0 -2 0 -1 0 -1 -1 -2 0 -2 0 -2 0 -1 -1 -2 1 2 0 1 0 2 0 2 1 2 0 1 0 1 0 2 0 0 1 2 0 1 0 1 0 2 0 0 1 3 0 2 0 2 0 0 1 2 0 1 0 1 0 2 0 0 1 2 0 2 0 1c3,17 6,35 10,53l0 1c3,14 6,29 9,43l0 2 0 1 3 12zm-28 -149l0 0 0 -1 0 0 0 -1 0 0 0 -1 0 0 0 -1 0 0 0 0 0 -1 0 -1 0 0 0 0 -1 -1 0 -1 0 0 0 0 0 -1 0 0 0 -1 0 -1 0 0 0 0 0 -1 0 0 0 -1 0 0 0 -1 0 0 -1 -1 0 0 0 -1 0 -1 0 0 0 0 0 -1 0 -1 0 0 0 0 0 -1 0 0 0 -1 0 0 0 -1 0 0 0 -1 -1 0 0 -1 0 0 0 -1 0 0 0 -1 0 0 0 0 0 -1 0 -1 0 0 0 0 0 -1 0 0 0 -1 0 0 0 -1 0 0 0 -1 0 0 0 -1 -1 0 0 -1 0 0 0 0 0 -2 0 0 0 -3 0 3 0 0 0 2 0 0 0 0 0 1 1 0 0 1 0 0 0 1 0 0 0 1 0 0 0 1 0 0 0 1 0 0 0 0 0 1 0 1 0 0 0 0 0 1 0 0 0 1 0 0 0 1 1 0 0 1 0 0 0 1 0 0 0 1 0 0 0 1 0 0 0 0 0 1 0 1 0 0 0 0 0 1 0 1 0 0 1 1 0 0 0 1 0 0 0 1 0 0 0 1 0 0 0 0 0 1 0 1 0 0 0 1 0 0 0 0 0 1 1 1 0 0 0 0 0 1 0 1 0 0 0 0 0 1 0 0 0 1 0 0 0 1 0 0 0 1 0 0zm-4 -39l0 0 0 -1 0 -1 0 -2 0 0 -1 -2 0 0 0 -1 0 -1 0 -1 0 -2 0 0 0 -1 0 -1 0 -1 0 -1 0 0 0 -2 -1 0 0 -1 0 -1 0 -1 0 -8 0 0 0 -3 0 -1 0 0 -1 -7 0 0 0 -1 0 -1 0 -1 0 -1 0 0 0 -5 0 -1 0 -1 0 -1 0 -1 0 -1 0 -1 0 0 -1 -2 0 0 0 -1 0 -1 0 -1 0 -1 0 0 0 -2 0 0 0 -1 0 -2 0 0 0 -2 0 0 0 -1 0 -1 0 -1 0 -1 0 0 0 -2 0 0 0 -1 0 -1 0 -1 0 -1 0 -1 0 -1 0 -1 0 0 0 -2 0 0 0 -2 0 0 0 -1 0 -1 0 -1 0 -1 0 0 0 -2 0 0 0 -1 0 -2 0 0 0 -1 0 -1 0 -1 0 -1 0 0 0 -2 0 2 0 0 0 1 0 1 0 1 0 1 0 0 0 2 0 1 0 0 0 2 0 0 0 1 0 1 0 1 0 1 0 0 0 2 0 0 0 2 0 0 0 1 0 1 0 1 0 1 0 1 0 1 0 1 0 0 0 2 0 0 0 1 0 1 0 1 0 1 0 0 0 2 0 0 0 2 0 1 0 0 0 2 0 0 0 1 0 1 0 1 0 1 0 0 1 2 0 0 0 1 0 1 0 1 0 1 0 1 0 1 0 5 0 0 0 1 0 1 0 1 0 1 0 0 1 7 0 0 0 1 0 3 0 0 0 8 0 1 0 1 0 1 1 0 0 2 0 0 0 1 0 1 0 1 0 1 0 0 0 2 0 1 0 1 0 1 0 0 1 2 0 0 0 2 0 1 0 1 0 0zm-4 -99l0 0zm99 716l0 0z"/>
     <path class="fil13" d="M3093 2449c-55,0 -178,-6 -205,-56 -34,-65 10,-214 58,-273 32,-40 43,-67 52,-90 35,22 58,40 67,48l0 0 0 -1 0 0c0,-7 0,-13 0,-20l0 0 0 -1 0 0 0 0 0 1 0 0 0 20 0 0 0 1 0 0 0 0c0,46 2,92 8,138 9,66 27,149 46,232 0,0 -10,1 -26,1z"/>
     <path class="fil8" d="M2113 2773c85,217 282,337 381,385 -159,-36 -327,-107 -408,-177 -136,-118 -384,-832 -366,-1094 18,-262 414,-456 716,-463 303,-7 586,212 615,356 7,35 11,71 13,107 0,0 -214,-230 -735,-82 -511,144 -331,673 -216,968z"/>
     <path class="fil14" d="M2551 3170c-1,0 -1,0 -1,0 0,0 0,0 1,0z"/>
    </g>
    <g style="clip-path:url(#id3)">
     <image x="3045" y="1861" width="56.1737" height="144.868" xlink:href="kid_Images\kid_ImgID2.png"/>
    </g>
    <g style="clip-path:url(#id4)">
     <path class="fil15" d="M3065 2056l0 -1 0 -9c0,-21 0,-43 0,-65l0 0c0,25 0,49 0,74l0 1z"/>
     <path class="fil16" d="M2550 3170c-19,-4 -37,-8 -56,-12 -99,-48 -296,-168 -381,-385 -115,-295 -295,-824 216,-968 95,-27 179,-42 255,-47 0,0 0,0 0,0 52,38 120,49 183,49 51,0 99,-7 131,-14 114,39 166,94 166,94 1,31 1,63 1,94 0,22 0,44 0,65 -11,-20 -30,-52 -43,-52 -3,0 -6,2 -9,6 -6,10 -10,19 -15,30 -66,-40 -179,-90 -331,-93 -2,0 -4,0 -6,0 -254,0 -484,217 -480,273 1,15 6,20 15,20 11,0 26,-7 46,-13 20,-7 44,-14 71,-14 16,0 32,2 49,7 106,32 166,258 159,263 -7,5 -111,82 -230,103 -121,22 -98,244 -58,315 55,98 241,264 317,279zm-56 -12l0 0zm570 -1271l0 0zm1 159l0 0zm-1021 886l-1 -2 -1 -1 0 0 -2 -3 0 -1c-21,-31 -44,-71 -66,-117 -20,-40 -39,-84 -59,-132l0 0c42,103 86,191 125,249l0 1 2 3 0 0 1 1 1 2z"/>
     <path class="fil17" d="M3065 2078c-9,-8 -32,-26 -67,-48 5,-11 9,-20 15,-30 3,-4 6,-6 9,-6 13,0 32,32 43,52l0 10c0,7 0,15 0,22z"/>
     <path class="fil8" d="M2494 3158c-159,-36 -327,-107 -408,-177l0 0c-13,-11 -27,-28 -42,-49l0 0c-40,-58 -85,-150 -129,-256l0 0c-1,-7 -2,-15 -3,-22 62,44 116,79 122,82 -2,-4 -39,-71 -86,-320 -33,-172 17,-374 53,-487 17,-54 31,-89 31,-89 0,0 140,0 270,-46 131,-47 147,-194 147,-194 0,0 6,65 135,158 -76,5 -160,20 -255,47 -511,144 -331,673 -216,968 85,217 282,337 381,385l0 0zm570 -1271c0,0 -52,-55 -166,-94 25,-5 41,-10 41,-10 0,0 31,40 101,40 6,0 12,0 18,-1 0,0 0,0 0,0 3,22 5,43 6,65z"/>
     <path class="fil8" d="M2605 3030c0,0 61,136 169,123 108,-14 134,-143 134,-143 0,0 -61,92 -157,85 -96,-7 -146,-65 -146,-65z"/>
     <path class="fil18" d="M2552 2888c0,0 56,248 222,233 165,-14 172,-281 172,-281l-135 84 -259 -36z"/>
     <path class="fil8" d="M2538 2859c0,0 34,13 195,-36 160,-50 223,0 223,0 0,0 34,28 -158,59 -192,31 -260,-23 -260,-23z"/>
     <path class="fil19" d="M2888 2393c-9,-13 14,-259 114,-234 100,25 100,178 91,196 -8,18 -61,43 -133,45 -72,2 -64,4 -72,-7z"/>
     <path class="fil19" d="M2500 2448c-26,35 -132,104 -248,75 -22,-5 -76,-182 20,-225 95,-44 215,75 228,119 14,43 0,31 0,31z"/>
     <path class="fil20" d="M2487 4019l-92 0c-1,-16 -2,-30 -3,-45 -5,-54 -12,-105 -22,-149 15,-95 26,-191 39,-257 4,-13 7,-24 8,-33 0,0 0,0 0,-1 0,-1 1,-2 1,-3 0,-1 1,-2 1,-2 7,0 24,115 29,154 11,88 25,204 39,336z"/>
     <path class="fil21" d="M2503 4177l-13 -129c4,42 9,85 13,129z"/>
     <path class="fil22" d="M2375 4530c10,-95 19,-208 22,-321l109 0c9,103 18,211 25,319l-156 2z"/>
     <path class="fil23" d="M2540 4692l-8 -145c3,49 6,97 8,145z"/>
     <line class="fil24" x1="2458" y1="4851" x2="2458" y2= "4851" />
     <path class="fil25" d="M2428 4936c0,0 30,-55 30,-85 0,-10 -3,-17 -11,-19 -6,-2 -10,-3 -15,-3 -8,0 -14,3 -21,5 -8,2 -15,4 -25,4 -8,0 -16,-1 -27,-5 -2,0 -5,-2 -7,-6 -15,-24 -26,-117 -33,-233 1,3 1,7 2,10l5 82 7 1c8,53 12,86 12,87l0 0 0 0c0,-1 5,-33 12,-85l184 20c3,73 5,145 6,215 -54,5 -85,8 -102,10 -12,1 -17,2 -17,2z"/>
     <path class="fil26" d="M1907 5380l0 0c0,0 0,0 0,0 0,0 0,0 0,0l0 0z"/>
     <path class="fil27" d="M2253 6393c-21,-17 -124,-115 -145,-135 7,-117 6,56 -7,-146 -3,-45 -7,-87 -13,-125 41,36 81,69 118,98 4,8 7,16 10,24 -1,2 100,152 93,241 -8,140 -46,-39 -56,43z"/>
     <line class="fil28" x1="2449" y1="6259" x2="2449" y2= "6259" />
     <polygon class="fil29" points="2449,6366 2449,6364 2449,6364 2449,6363 2449,6361 2449,6359 2449,6358 2449,6358 2449,6356 2449,6354 2449,6353 2449,6351 2449,6351 2449,6349 2449,6348 2449,6346 2449,6345 2449,6344 2449,6343 2449,6341 2449,6339 2449,6338 2449,6338 2449,6336 2449,6334 2449,6333 2449,6332 2449,6331 2449,6329 2449,6328 2449,6325 2449,6324 2449,6323 2449,6318 2449,6316 2449,6289 2449,6287 2449,6286 2449,6285 2449,6284 2449,6282 2449,6275 2449,6274 2449,6272 2449,6272 2449,6270 2449,6269 2449,6267 2449,6265 2449,6265 2449,6264 2449,6262 2449,6260 2449,6259 2449,6260 2449,6262 2449,6264 2449,6265 2449,6265 2449,6267 2449,6269 2449,6270 2449,6272 2449,6272 2449,6274 2449,6275 2449,6282 2449,6284 2449,6285 2449,6286 2449,6287 2449,6289 2449,6316 2449,6318 2449,6323 2449,6324 2449,6325 2449,6328 2449,6329 2449,6331 2449,6332 2449,6333 2449,6334 2449,6336 2449,6338 2449,6338 2449,6339 2449,6341 2449,6343 2449,6344 2449,6345 2449,6346 2449,6348 2449,6349 2449,6351 2449,6351 2449,6353 2449,6354 2449,6356 2449,6358 2449,6358 2449,6359 2449,6361 2449,6363 2449,6364 2449,6364 "/>
     <path class="fil30" d="M2531 2457c0,0 -86,-169 -220,-145 -134,24 -65,220 -65,220 0,0 -103,-178 -17,-252 167,-144 302,177 302,177z"/>
     <path class="fil30" d="M2494 2402c0,0 -2,28 -12,52 -11,24 -46,41 -46,41 0,0 88,-3 95,-38 7,-34 -37,-55 -37,-55z"/>
     <path class="fil30" d="M3094 2367c0,0 -7,-187 -102,-180 -12,1 -24,6 -33,14 -38,31 -52,103 -60,141 -3,15 -1,33 -1,33 0,0 -17,34 -16,12 2,-36 17,-149 39,-189 16,-31 42,-53 80,-51 118,6 93,220 93,220z"/>
     <path class="fil30" d="M2888 2355c0,0 -10,39 0,47 10,7 65,0 65,0 0,0 -24,0 -47,-19 -21,-17 -18,-28 -18,-28z"/>
     <path class="fil30" d="M2383 2399c14,56 -7,109 -46,119 -39,9 -81,-28 -95,-84 -14,-56 7,-109 46,-118 39,-10 81,27 95,83z"/>
     <path class="fil30" d="M2953 2401c-24,3 -47,-22 -60,-58 -2,-4 -3,-8 -3,-13 1,-36 9,-92 31,-132 4,-2 8,-3 12,-4 8,-1 17,2 26,7 21,15 38,50 42,91 6,57 -16,106 -48,109z"/>
     <path class="fil19" d="M2449 2409c0,9 -27,15 -60,15 -33,0 -60,-6 -60,-15 0,-8 27,-15 60,-15 33,0 60,7 60,15z"/>
     <path class="fil19" d="M3073 2303c0,9 -27,15 -60,15 -33,0 -60,-6 -60,-15 0,-8 27,-15 60,-15 33,0 60,7 60,15z"/>
     <path class="fil30" d="M2405 1916c0,0 -79,34 -165,103 -86,68 -127,175 -127,175 0,0 75,-74 191,-114 116,-41 156,-49 190,-83 33,-33 26,-102 26,-102 0,0 -20,37 -30,51 -10,13 -10,13 -10,13 0,0 17,-33 20,-49 3,-16 3,-16 3,-16 0,0 -54,0 -98,22z"/>
     <path class="fil30" d="M2820 1894c0,0 3,41 35,86 33,46 131,50 173,76 41,26 41,26 41,26l4 -38c0,0 -20,-69 -82,-109 -60,-39 -145,-48 -145,-48 0,0 15,22 26,45 10,24 10,24 10,24 0,0 -52,-42 -62,-62z"/>
     <path class="fil30" d="M2521 2849c-29,-16 -29,22 -15,27 14,5 33,4 46,12 13,8 96,116 196,140 101,24 172,-144 205,-180 33,-35 37,-54 21,-52 -15,2 -15,32 -28,44 -13,12 -116,50 -249,47 -133,-4 -154,-26 -176,-38z"/>
     <path class="fil19" d="M2584 2892c0,0 88,18 190,10 102,-7 125,-24 125,-24 0,0 -38,95 -108,123 -70,28 -207,-109 -207,-109z"/>
     <path class="fil30" d="M2625 2942c0,0 55,6 102,5 47,-2 47,-2 47,-2 0,0 -34,11 -69,14 -36,4 -54,0 -54,0l-26 -17z"/>
     <path class="fil8" d="M2654 2694c0,0 45,-26 131,-18 87,9 154,-61 154,-61 0,0 -21,122 -102,121 -82,-1 -116,-50 -183,-42z"/>
     <path class="fil18" d="M2893 2559c2,13 -40,30 -93,39 -53,9 -98,7 -101,-5 -2,-12 40,-30 93,-39 54,-9 99,-7 101,5z"/>
     <path class="fil30" d="M2672 2699c-8,-12 38,-15 60,-7 23,9 28,17 28,17 0,0 -24,-13 -35,-11 -10,2 -38,24 -53,1z"/>
     <path class="fil8" d="M2654 2599c0,0 -16,24 -29,55 -13,31 23,55 23,55 0,0 -42,-9 -50,-42 -8,-32 56,-68 56,-68z"/>
     <path class="fil8" d="M1900 2532c0,0 -212,-97 -352,-51 -140,45 36,307 171,383 135,77 231,69 262,14 31,-55 16,-169 16,-169l-97 -177z"/>
     <path class="fil9" d="M1926 2725c0,0 -115,-118 -207,-149 -92,-31 -164,-19 -164,-19 0,0 66,13 153,97 87,85 218,71 218,71z"/>
     <path class="fil9" d="M1847 2688c0,0 9,78 -16,120 -25,42 -112,0 -112,0 0,0 57,9 65,-40 8,-49 0,-92 0,-92l63 12z"/>
     <path class="fil31" d="M3295 1604c-11,133 -155,210 -237,218 -82,8 -119,-39 -119,-39 0,0 -227,69 -355,-25 -129,-93 -135,-158 -135,-158 0,0 -16,147 -147,194 -130,46 -270,46 -270,46 0,0 -14,35 -31,89 -36,113 -86,315 -53,487 47,249 84,316 86,320 -12,-7 -278,-176 -315,-256 0,0 -261,-575 -340,-650 -45,-43 -76,-119 -69,-195 6,-58 33,-117 94,-160 140,-101 140,-101 140,-101 0,0 39,-157 142,-235 16,-12 35,-23 55,-30 144,-54 185,35 185,35 0,0 176,-265 403,-186 220,77 223,130 223,133 0,0 257,-86 406,10 150,97 55,208 55,208 0,0 208,115 267,231 11,21 17,43 15,64z"/>
     <path class="fil32" d="M3089 1635c-5,0 -10,0 -16,0 -119,-10 -183,-148 -183,-148 0,0 5,53 -82,53 -18,0 -40,-2 -68,-8 -156,-34 -156,-171 -156,-172 0,0 -45,107 -141,107 -12,0 -24,-1 -37,-5 -122,-31 -155,-102 -155,-102 0,0 -43,120 -152,137 -10,2 -19,3 -28,3 -92,0 -145,-76 -145,-76 0,0 -150,-7 -207,-88 -37,-54 -38,-143 -33,-197 16,-12 35,-23 55,-30 33,-13 61,-18 84,-18 77,0 101,53 101,53 0,0 133,-201 318,-201 27,0 56,5 85,15 220,77 223,130 223,133 0,0 105,-36 220,-36 65,0 133,12 186,46 67,43 85,89 85,126 0,48 -30,82 -30,82l0 0c0,0 208,115 267,231 0,0 -80,95 -191,95z"/>
     <path class="fil30" d="M2034 2736c-12,-7 -278,-176 -315,-256 0,0 -261,-575 -340,-650 -45,-43 -76,-119 -69,-195 0,0 94,189 286,205 191,15 298,-57 298,-57 0,0 -14,64 14,86 44,35 124,-29 124,-29 -36,114 -117,404 -84,576 47,249 84,316 86,320z"/>
     <path class="fil33" d="M3691 6287c-136,-241 -362,-2257 -435,-2388 -73,-130 -489,-622 -489,-622 0,0 62,-30 156,-17 94,14 422,344 514,554 79,181 371,1204 476,1588 17,60 29,105 35,128 34,132 250,360 112,468l-369 289z"/>
     <path class="fil34" d="M2663 3209c0,0 209,16 301,48 96,33 211,261 211,261 0,0 -94,-160 -169,-169 -76,-9 14,189 14,189 0,0 -163,-243 -237,-278 -62,-29 -114,-37 -114,-37l-6 -14z"/>
     <path class="fil35" d="M1858 5547l49 -167c-10,39 -22,82 -36,128 -4,13 -9,26 -13,39z"/>
     <line class="fil36" x1="1858" y1="5547" x2="1858" y2= "5547" />
     <path class="fil37" d="M1871 5508c-4,13 -9,26 -13,39 4,-13 9,-26 13,-39z"/>
     <path class="fil38" d="M1956 5595c-45,-65 -83,-85 -85,-87 14,-46 26,-89 36,-128l0 0c22,67 42,115 63,150 0,3 -5,26 -14,65z"/>
     <line class="fil39" x1="2011" y1="5581" x2="2011" y2= "5581" />
     <path class="fil40" d="M2251 5864c-74,-42 -157,-95 -229,-143 -9,-22 -17,-42 -26,-59 9,-54 15,-81 15,-81l9 8c11,7 29,10 53,10 55,0 142,-18 244,-46 -1,3 -34,121 -66,311z"/>
     <path class="fil41" d="M2454 5975c-2,-1 -18,-9 -87,-47 25,-252 31,-396 31,-398 34,-10 70,-21 106,-33 -28,141 -43,308 -50,478z"/>
     <path class="fil42" d="M2216 6109c-3,-8 -6,-16 -10,-24 4,4 8,7 12,10 0,4 -1,9 -2,14z"/>
     <path class="fil43" d="M2332 6331c-47,-16 5,-98 9,-144 64,45 105,70 108,72 0,38 36,126 0,114l-117 -42z"/>
     <path class="fil44" d="M1996 5662c-14,-27 -27,-49 -40,-67 9,-39 14,-62 14,-65 13,21 26,38 41,51l0 0c0,0 -6,27 -15,81z"/>
     <path class="fil45" d="M2329 6397c-23,-55 -49,-120 -77,-198 -11,-31 -23,-61 -36,-90 1,-5 2,-10 2,-14 46,36 88,67 123,92 -5,67 -9,139 -12,210zm38 -469c-29,-15 -66,-36 -115,-63 0,-1 -1,-1 -1,-1 32,-190 65,-308 66,-311 26,-7 53,-14 81,-23 0,2 -6,146 -31,398z"/>
     <path class="fil46" d="M2909 5489l112 -179c45,-17 86,-33 119,-46l0 18 116 -47 -10 -185c94,7 201,30 316,30 17,0 34,0 52,-2 99,-7 175,-30 219,-54l-8 82 -23 228 -40 7 -169 29 -50 9 -634 110zm705 -743c-44,0 -72,-6 -72,-6 0,0 5,-28 46,-49 40,-21 75,-16 133,-54 58,-39 64,-85 43,-101 -5,-3 -9,-5 -12,-5 -11,0 -20,19 -69,39 -57,23 -165,44 -242,72l512 -814 -40 402 -9 86 -9 95 -20 202 -6 55c-20,18 -54,39 -114,57 -54,16 -103,21 -141,21z"/>
     <path class="fil47" d="M2909 5489l-62 -95 -1 -17c5,-2 9,-3 13,-5l2 43 36 55 -3 -111c26,-10 51,-20 75,-29 18,-7 35,-13 52,-20l-112 179zm-91 -592l-64 -1054 537 -16 92 -3 419 -13 151 17 -512 814c-9,4 -18,7 -26,11 -75,33 -107,153 -176,209l-4 0 0 0 -99 -6 0 14c-38,3 -84,7 -132,11 -39,3 -80,7 -120,10l-22 -987 1020 -69 -100 -7 -985 44 42 1023c-7,0 -14,1 -21,2z"/>
     <polygon class="fil19" points="3882,3835 3782,3828 2797,3872 2861,5415 2897,5470 2862,3904 "/>
     <polygon class="fil48" points="3741,3749 3741,3811 2754,3843 2846,5365 2772,5365 2643,3777 "/>
     <polygon class="fil48" points="3741,3749 3605,3724 2531,3749 2678,5302 2772,5365 2643,3777 "/>
     <polygon class="fil19" points="2754,5353 2643,3777 3711,3750 3632,3740 2569,3763 2701,5318 "/>
     <path class="fil49" d="M2506 4209l0 0c-1,-10 -2,-21 -3,-32l3 32zm-16 -161c-1,-10 -2,-20 -3,-29l0 0 3 29z"/>
     <path class="fil50" d="M2506 4209l-109 0c0,-25 1,-50 1,-74 0,-40 -1,-79 -3,-116l92 0c1,9 2,19 3,29l13 129c1,11 2,22 3,32z"/>
     <path class="fil51" d="M3562 5080c-115,0 -222,-23 -316,-30l-6 -97c3,-51 0,-91 0,-91l-1 0c69,-56 101,-176 176,-209 8,-4 17,-7 26,-11 77,-28 185,-49 242,-72 49,-20 58,-39 69,-39 3,0 7,2 12,5 21,16 15,62 -43,101 -58,38 -93,33 -133,54 -41,21 -46,49 -46,49 0,0 28,6 72,6 38,0 87,-5 141,-21 60,-18 94,-39 114,-57 19,-17 27,-30 34,-35 2,-2 6,-2 9,-2 14,0 30,13 35,36 5,28 -22,75 -37,84 -16,9 -16,9 -16,9 0,0 26,-13 43,-13 4,0 8,1 10,3 12,10 3,49 -12,67 -14,17 -14,17 -14,17 0,0 6,26 3,52 -4,26 -34,46 -34,46 0,0 3,29 -12,57 -4,8 -14,16 -28,26 -5,3 -11,6 -17,9 -44,24 -120,47 -219,54 -18,2 -35,2 -52,2z"/>
     <path class="fil52" d="M2600 5152c-2,0 -4,0 -5,0 70,-7 146,-20 219,-35l-1 9c-74,15 -149,26 -213,26zm388 -70l1 -6c57,-15 108,-29 149,-41l0 0c-13,4 -71,24 -150,47zm252 -129l-5 -91 4 0 1 0c0,0 3,40 0,91zm-5 -91l0 0zm-1271 -502c-2,-4 -4,-7 -7,-10 -10,-55 -19,-108 -27,-158 3,12 5,23 8,35 10,45 19,89 29,132 -1,0 -2,1 -3,1zm-154 -174c-78,-71 -133,-95 -133,-95 -3,-39 -5,-78 -7,-116 16,-2 37,-3 63,-3 16,0 33,0 52,1 4,61 13,133 25,213zm-133 -95l0 0zm-10 -201c0,-43 2,-83 7,-118 -5,35 -7,75 -7,118zm7 -118c6,-52 18,-95 39,-120 0,0 33,30 79,124 -42,-3 -79,-4 -108,-4 -3,0 -7,0 -10,0zm39 -120c12,-16 30,-33 53,-50 -23,17 -41,34 -53,50zm53 -50l0 0zm659 -141c-12,-15 -43,-53 -74,-92 29,23 62,56 74,92z"/>
     <path class="fil53" d="M2595 5152c-33,0 -63,-4 -88,-11 -56,-16 -100,-46 -140,-90 33,-49 58,-88 78,-117 -12,1 -17,2 -17,2l0 0c0,0 5,-1 17,-2 24,-2 77,-8 183,-19 51,-6 130,-13 215,-20 53,-5 109,-10 161,-14 48,-4 94,-8 132,-11l2 165c-41,12 -92,26 -149,41l15 -195c-52,4 -108,9 -161,14l-29 222c-73,15 -149,28 -219,35zm-340 -271c-48,-88 -99,-196 -169,-324 86,-3 148,-4 192,-4 13,0 24,0 34,0 3,14 5,28 7,41 7,116 18,209 33,233 2,4 5,6 7,6 11,4 19,5 27,5 10,0 17,-2 25,-4 7,-2 13,-5 21,-5 5,0 9,1 15,3 8,2 11,9 11,19l0 0c0,-10 -3,-17 -11,-19 -6,-2 -10,-3 -15,-3 -8,0 -14,3 -21,5 -8,2 -15,4 -25,4 -8,0 -16,-1 -27,-5 -2,0 -5,-2 -7,-6 -23,16 -57,31 -97,54zm21 -510c-50,-5 -119,-10 -213,-12 -13,-1 -25,-1 -37,-1 -20,0 -40,1 -59,1 -10,-43 -19,-87 -29,-132 -3,-12 -5,-23 -8,-35 -13,-78 -23,-150 -30,-208 20,2 41,5 64,9 92,14 164,33 221,52 38,102 68,217 91,326zm94 -546c-7,-28 -15,-54 -25,-76 0,0 0,0 0,0 21,-54 50,-131 64,-181 -13,66 -24,162 -39,257zm-303 -14c-2,0 -3,0 -4,0 -52,-10 -101,-18 -145,-23 18,-23 43,-48 70,-72 25,26 52,57 79,95zm-256 -34c-6,0 -13,-1 -19,-1 -46,-94 -79,-124 -79,-124 12,-16 30,-33 53,-50 0,0 0,1 0,1 0,0 2,-1 6,-1 17,0 67,4 133,47 -35,36 -69,78 -94,128zm606 -243c0,-1 1,-3 1,-3 0,1 -1,2 -1,3z"/>
     <path class="fil54" d="M2345 3749c-118,-269 -261,-308 -282,-320l0 0c2,-3 127,-145 161,-192 18,-25 102,-28 148,-28 18,0 30,0 30,0l-1 21c0,0 -123,9 -118,37 1,10 17,34 38,62 3,4 6,8 9,12 7,9 14,19 21,28 31,39 62,77 74,92l0 0c25,32 25,235 25,235 0,0 -1,-5 -2,-13 -5,-39 -22,-154 -29,-154 0,0 -1,1 -1,2l0 0c0,0 -1,2 -1,3l0 0c0,1 0,1 0,1 -1,9 -4,20 -8,33l0 0c-14,50 -43,127 -64,181z"/>
     <path class="fil55" d="M1670 3975l0 0c-2,-29 -3,-58 -3,-85 0,-43 2,-83 7,-118 3,0 7,0 10,0 29,0 66,1 108,4 3,6 7,13 10,20 -2,6 -5,12 -7,18 -12,31 -15,86 -10,159 -19,-1 -36,-1 -52,-1 -26,0 -47,1 -63,3z"/>
     <path class="fil56" d="M2185 4045c-57,-19 -129,-38 -221,-52 -23,-4 -44,-7 -64,-9 -10,-83 -13,-140 -7,-156 4,-12 13,-26 25,-40 44,5 93,13 145,23 1,0 2,0 4,0 11,16 22,33 34,52 31,51 59,113 84,182zm-383 -249c-3,-7 -7,-14 -10,-20 6,0 13,1 19,1 -3,6 -6,13 -9,19z"/>
     <path class="fil57" d="M1968 4365c-1,-2 -2,-4 -4,-5 1,0 2,-1 3,-1 0,2 1,4 1,6z"/>
     <path class="fil58" d="M2086 4557c-5,-10 -10,-19 -15,-29 -34,-62 -69,-117 -103,-163 0,-2 -1,-4 -1,-6 19,0 39,-1 59,-1 12,0 24,0 37,1 94,2 163,7 213,12 15,65 27,127 36,182 -10,0 -21,0 -34,0 -44,0 -106,1 -192,4z"/>
     <path class="fil59" d="M1907 5380c-11,-36 -23,-77 -36,-124 12,42 25,82 37,119 0,1 0,3 -1,5z"/>
     <path class="fil60" d="M1907 5380c0,0 0,0 0,0 1,-2 1,-4 1,-5 1,1 2,3 2,5l-3 0z"/>
     <path class="fil61" d="M1985 5548l-15 -18c0,0 0,0 0,0 -21,-35 -41,-83 -63,-150l3 0c25,71 50,130 75,168z"/>
     <path class="fil62" d="M2011 5581c-15,-13 -28,-30 -41,-51 0,0 0,0 0,0l15 18c8,14 17,25 26,33z"/>
     <path class="fil63" d="M2367 5051c-39,-44 -74,-100 -112,-170 40,-23 74,-38 97,-54 2,4 5,6 7,6 11,4 19,5 27,5 10,0 17,-2 25,-4 7,-2 13,-5 21,-5 5,0 9,1 15,3 8,2 11,9 11,19 0,30 -30,85 -30,85 0,0 5,-1 17,-2 -20,29 -45,68 -78,117zm61 -115l0 0z"/>
     <path class="fil64" d="M2813 5126l1 -9c61,-13 121,-27 175,-41l-1 6c-52,15 -113,31 -175,44z"/>
     <path class="fil65" d="M2814 5117l29 -222c53,-5 109,-10 161,-14l-15 195c-54,14 -114,28 -175,41z"/>
     <path class="fil66" d="M1957 4350c-53,-72 -104,-125 -147,-164 -12,-80 -21,-152 -25,-213 25,1 55,4 88,7 19,60 38,131 57,212 8,50 17,103 27,158z"/>
     <path class="fil67" d="M1930 4192c-19,-81 -38,-152 -57,-212 8,1 18,3 27,4 7,58 17,130 30,208zm-12 -404c-39,-5 -74,-9 -107,-11 25,-50 59,-92 94,-128 25,16 53,38 83,67 -27,24 -52,49 -70,72z"/>
     <path class="fil68" d="M1873 3980c-33,-3 -63,-6 -88,-7 -5,-73 -2,-128 10,-159 2,-6 5,-12 7,-18 22,47 46,107 71,184z"/>
     <path class="fil69" d="M1900 3984c-9,-1 -19,-3 -27,-4 -25,-77 -49,-137 -71,-184 3,-6 6,-13 9,-19 33,2 68,6 107,11 -12,14 -21,28 -25,40 -6,16 -3,73 7,156z"/>
     <path class="fil70" d="M2541 4709l0 0c-1,-6 -1,-11 -1,-17l1 17zm-9 -162c0,-6 -1,-12 -1,-19l0 0 1 19z"/>
     <path class="fil71" d="M2541 4709l-184 -20c5,-41 12,-96 18,-159l156 -2c0,7 1,13 1,19l8 145c0,6 0,11 1,17zm-208 -22l-7 -1 -5 -82c5,31 9,59 12,83z"/>
     <path class="fil72" d="M2449 6259c0,0 0,0 0,0 0,-2 0,-3 0,-4 0,-92 1,-186 5,-280 0,0 0,0 0,0l-5 284z"/>
     <path class="fil73" d="M2206 6085c-37,-29 -77,-62 -118,-98 -10,-72 -23,-134 -39,-187 53,81 109,178 157,285z"/>
     <path class="fil74" d="M2449 6259c-3,-2 -44,-27 -108,-72 3,-47 7,-91 12,-131 5,-45 10,-88 14,-128 69,38 85,46 87,47 -4,94 -5,188 -5,280 0,1 0,2 0,4zm-231 -164c-4,-3 -8,-6 -12,-10 -48,-107 -104,-204 -157,-285 -8,-29 -17,-55 -27,-79 72,48 155,101 229,143 -12,68 -23,146 -33,231z"/>
     <path class="fil75" d="M2341 6187c-35,-25 -77,-56 -123,-92 10,-85 21,-163 33,-231 0,0 1,0 1,1 49,27 86,48 115,63 -4,40 -9,83 -14,128 -5,40 -9,84 -12,131z"/>
     <polygon class="fil76" points="3136,4856 3235,4862 3256,5235 3140,5282 "/>
    </g>
    <g style="clip-path:url(#id5)">
     <image x="1626" y="5516" width="518" height="1353" xlink:href="kid_Images\kid_ImgID3.png"/>
    </g>
    <g style="clip-path:url(#id6)">
    </g>
    <g style="clip-path:url(#id7)">
     <image x="1626" y="5516" width="518" height="1353" xlink:href="kid_Images\kid_ImgID4.png"/>
    </g>
    <g style="clip-path:url(#id8)">
    </g>
    <g style="clip-path:url(#id9)">
     <image x="1837" y="5479" width="219" height="271" xlink:href="kid_Images\kid_ImgID5.png"/>
    </g>
    <g style="clip-path:url(#id10)">
    </g>
    <g style="clip-path:url(#id11)">
     <image x="1696" y="5623" width="304" height="1102" xlink:href="kid_Images\kid_ImgID6.png"/>
    </g>
    <g style="clip-path:url(#id12)">
    </g>
    <g style="clip-path:url(#id13)">
     <image x="1696" y="5623" width="304" height="1102" xlink:href="kid_Images\kid_ImgID7.png"/>
    </g>
    <g style="clip-path:url(#id14)">
    </g>
    <g style="clip-path:url(#id15)">
     <image x="1907" y="5568" width="112" height="163" xlink:href="kid_Images\kid_ImgID8.png"/>
    </g>
    <g style="clip-path:url(#id16)">
    </g>
    <g style="clip-path:url(#id17)">
     <image x="1785" y="5568" width="341" height="448" xlink:href="kid_Images\kid_ImgID9.png"/>
    </g>
    <g style="clip-path:url(#id18)">
    </g>
    <g style="clip-path:url(#id19)">
     <image x="1963" y="5675" width="108" height="145" xlink:href="kid_Images\kid_ImgID10.png"/>
    </g>
    <g style="clip-path:url(#id20)">
    </g>
    <g style="clip-path:url(#id21)">
     <image x="1874" y="5642" width="145" height="252" xlink:href="kid_Images\kid_ImgID11.png"/>
    </g>
    <g style="clip-path:url(#id22)">
    </g>
    <g style="clip-path:url(#id23)">
     <image x="1944" y="5656" width="74.6517" height="74.651" xlink:href="kid_Images\kid_ImgID12.png"/>
    </g>
    <g style="clip-path:url(#id24)">
    </g>
    <g style="clip-path:url(#id25)">
     <image x="1641" y="4060" width="1531" height="1568" xlink:href="kid_Images\kid_ImgID13.png"/>
    </g>
    <g style="clip-path:url(#id26)">
    </g>
    <g style="clip-path:url(#id27)">
     <image x="1678" y="4344" width="234" height="289" xlink:href="kid_Images\kid_ImgID14.png"/>
    </g>
    <g style="clip-path:url(#id28)">
    </g>
    <g style="clip-path:url(#id29)">
     <image x="1837" y="5054" width="322" height="555" xlink:href="kid_Images\kid_ImgID15.png"/>
    </g>
    <g style="clip-path:url(#id30)">
    </g>
    <g style="clip-path:url(#id31)">
     <image x="1926" y="4326" width="910" height="980" xlink:href="kid_Images\kid_ImgID16.png"/>
    </g>
    <g style="clip-path:url(#id32)">
    </g>
    <g style="clip-path:url(#id33)">
     <image x="1981" y="4522" width="640" height="662" xlink:href="kid_Images\kid_ImgID17.png"/>
    </g>
    <g style="clip-path:url(#id34)">
    </g>
    <g style="clip-path:url(#id35)">
     <image x="1926" y="4326" width="112" height="271" xlink:href="kid_Images\kid_ImgID18.png"/>
    </g>
    <g style="clip-path:url(#id36)">
    </g>
    <g style="clip-path:url(#id37)">
     <image x="1944" y="4326" width="163" height="252" xlink:href="kid_Images\kid_ImgID19.png"/>
    </g>
    <g style="clip-path:url(#id38)">
    </g>
    <g style="clip-path:url(#id39)">
     <image x="2070" y="4928" width="267" height="378" xlink:href="kid_Images\kid_ImgID20.png"/>
    </g>
    <g style="clip-path:url(#id40)">
    </g>
    <g style="clip-path:url(#id41)">
     <image x="2121" y="4858" width="271" height="289" xlink:href="kid_Images\kid_ImgID21.png"/>
    </g>
    <g style="clip-path:url(#id42)">
    </g>
    <g style="clip-path:url(#id43)">
     <image x="2957" y="5002" width="215" height="145" xlink:href="kid_Images\kid_ImgID22.png"/>
    </g>
    <g style="clip-path:url(#id44)">
    </g>
    <g style="clip-path:url(#id45)">
     <image x="2742" y="5054" width="271" height="378" xlink:href="kid_Images\kid_ImgID23.png"/>
    </g>
    <g style="clip-path:url(#id46)">
    </g>
    <g style="clip-path:url(#id47)">
     <image x="1785" y="4149" width="1050" height="1316" xlink:href="kid_Images\kid_ImgID24.png"/>
    </g>
    <g style="clip-path:url(#id48)">
    </g>
    <g style="clip-path:url(#id49)">
     <image x="1818" y="4326" width="200" height="271" xlink:href="kid_Images\kid_ImgID25.png"/>
    </g>
    <g style="clip-path:url(#id50)">
    </g>
    <g style="clip-path:url(#id51)">
     <image x="1981" y="4965" width="267" height="485" xlink:href="kid_Images\kid_ImgID26.png"/>
    </g>
    <g style="clip-path:url(#id52)">
    </g>
    <g style="clip-path:url(#id53)">
     <image x="2957" y="5054" width="215" height="200" xlink:href="kid_Images\kid_ImgID27.png"/>
    </g>
    <g style="clip-path:url(#id54)">
    </g>
    <g style="clip-path:url(#id55)">
     <image x="2761" y="5091" width="252" height="234" xlink:href="kid_Images\kid_ImgID28.png"/>
    </g>
    <g style="clip-path:url(#id56)">
     <path class="fil77" d="M3140 5264l0 0 -1 -93 -1 -95 0 -41c1,-1 2,-1 2,-1l0 230c0,0 0,0 0,0z"/>
     <path class="fil78" d="M2398 4135c0,-56 -2,-110 -6,-161l-1 -2c0,0 -1,1 -4,1 -22,0 -109,-13 -247,-201 -155,-210 -354,-213 -366,-213 0,0 -1,0 -1,0 -6,16 -7,30 -7,38 0,0 0,-1 0,-1 0,-8 1,-22 7,-37 6,-14 17,-29 34,-40 48,-30 60,-22 114,-63 35,-25 74,-34 103,-34 17,0 31,3 39,7l0 0c21,12 164,51 282,320 0,0 0,0 0,0 10,22 18,48 25,76l0 0c10,44 17,95 22,149 1,15 2,29 3,45 2,37 3,76 3,116z"/>
     <path class="fil79" d="M2345 4774c0,0 -8,-73 -26,-180 -2,-13 -4,-27 -7,-41 -36,-210 -105,-518 -211,-690 -39,-63 -77,-111 -113,-147 -30,-29 -58,-51 -83,-67 -66,-43 -116,-47 -133,-47 -4,0 -6,1 -6,1 0,0 0,-2 0,-6 0,-8 1,-22 7,-38 0,0 1,0 1,0 12,0 211,3 366,213 138,188 225,201 247,201 3,0 4,-1 4,-1l1 2c4,51 6,105 6,161 0,24 -1,49 -1,74 -3,113 -12,226 -22,321 -6,63 -13,118 -18,159 -7,53 -12,85 -12,85z"/>
    </g>
   </g>
  </g>
  <polygon class="fil80" points="660,831 4462,831 4462,5608 660,5608 "/>
 </g>
</svg>
